<!DOCTYPE svg PUBLIC "-//W3C//DTD SVG 1.1//EN" "http://www.w3.org/Graphics/SVG/1.1/DTD/svg11.dtd">
<!-- Uploaded to: SVG Repo, www.svgrepo.com, Transformed by: SVG Repo Mixer Tools -->
<svg width="800px" height="800px" viewBox="-0.57 0 7.4083376 7.4083376" id="svg8" version="1.1" xmlns="http://www.w3.org/2000/svg" xmlns:cc="http://creativecommons.org/ns#" xmlns:dc="http://purl.org/dc/elements/1.1/" xmlns:rdf="http://www.w3.org/1999/02/22-rdf-syntax-ns#" xmlns:svg="http://www.w3.org/2000/svg" fill="#ffffff" stroke="#ffffff">
<g id="SVGRepo_bgCarrier" stroke-width="0"/>
<g id="SVGRepo_tracerCarrier" stroke-linecap="round" stroke-linejoin="round"/>
<g id="SVGRepo_iconCarrier"> <defs id="defs2"/> <g id="layer1" transform="translate(-44.011789,-289.06248)"> <path d="m 173.00195,2 c -0.55226,-0.0021 -1.00169,0.4438328 -1.0039,0.9960938 v 4.0019531 c -0.0303,1.3632557 2.03026,1.3632557 2,0 V 4 h 14.0039 v 24 h -14.0039 v -2.998047 c 0.0303,-1.363256 -2.03026,-1.363256 -2,0 v 4.001953 c 0.002,0.552261 0.45164,0.998197 1.0039,0.996094 h 15.9961 c 0.55226,0.0021 1.00169,-0.443833 1.0039,-0.996094 V 2.9960938 C 189.99974,2.4438328 189.55031,1.9978972 188.99805,2 Z m -0.0156,7.3457031 c -3.65973,0 -6.64258,2.9906739 -6.64258,6.6503909 0,3.659754 2.98285,6.644531 6.64258,6.644531 1.47059,0 2.82957,-0.488869 3.93359,-1.302734 l 5.36914,5.36914 c 0.94512,0.985329 2.40265,-0.474208 1.41602,-1.417969 l -5.36914,-5.365234 c 0.81398,-1.102087 1.30273,-2.458436 1.30273,-3.927734 0,-3.659717 -2.99261,-6.6503909 -6.65234,-6.6503909 z m 0,1.9999999 c 2.57885,0 4.65234,2.071544 4.65234,4.650391 0,2.621871 -2.18543,4.559194 -4.65234,4.642578 -2.57885,0 -4.64258,-2.063693 -4.64258,-4.642578 0,-2.578847 2.06373,-4.650391 4.64258,-4.650391 z M 171.99805,13 v 2 h -2 c -1.3636,-0.03061 -1.3636,2.030615 0,2 h 2 v 2 c -0.0303,1.363256 2.03026,1.363256 2,0 v -2 h 2 c 1.3636,0.03062 1.3636,-2.030615 0,-2 h -2 v -2 c 0,-1.301265 -2,-1.287747 -2,0 z" id="icon-5" style="color:#ffffff;font-style:normal;font-variant:normal;font-weight:normal;font-stretch:normal;font-size:medium;line-height:normal;font-family:sans-serif;font-variant-ligatures:normal;font-variant-position:normal;font-variant-caps:normal;font-variant-numeric:normal;font-variant-alternates:normal;font-feature-settings:normal;text-indent:0;text-align:start;text-decoration:none;text-decoration-line:none;text-decoration-style:solid;text-decoration-color:#ffffff;letter-spacing:normal;word-spacing:normal;text-transform:none;writing-mode:lr-tb;direction:ltr;text-orientation:mixed;dominant-baseline:auto;baseline-shift:baseline;text-anchor:start;white-space:normal;shape-padding:0;clip-rule:nonzero;display:inline;overflow:visible;visibility:visible;opacity:1;isolation:auto;mix-blend-mode:normal;color-interpolation:sRGB;color-interpolation-filters:linearRGB;solid-color:#ffffff;solid-opacity:1;vector-effect:none;fill:#ffffff;fill-opacity:1;fill-rule:nonzero;stroke:none;stroke-width:2;stroke-linecap:round;stroke-linejoin:round;stroke-miterlimit:4;stroke-dasharray:none;stroke-dashoffset:0;stroke-opacity:1;color-rendering:auto;image-rendering:auto;shape-rendering:auto;text-rendering:auto;enable-background:accumulate" transform="matrix(0.26458333,0,0,0.26458333,0,288.53332)"/> </g> </g>
</svg>